<?xml version="1.0" encoding="UTF-8" standalone="no"?>
<svg
   viewBox="0 0 12 12"
   fill="none"
   version="1.1"
   id="svg834"
   sodipodi:docname="arrow-down-left.svg"
   inkscape:version="1.1.2 (b8e25be833, 2022-02-05)"
   xmlns:inkscape="http://www.inkscape.org/namespaces/inkscape"
   xmlns:sodipodi="http://sodipodi.sourceforge.net/DTD/sodipodi-0.dtd"
   xmlns="http://www.w3.org/2000/svg"
   xmlns:svg="http://www.w3.org/2000/svg">
  <defs
     id="defs838" />
  <sodipodi:namedview
     id="namedview836"
     pagecolor="#ffffff"
     bordercolor="#666666"
     borderopacity="1.0"
     inkscape:pageshadow="2"
     inkscape:pageopacity="0.0"
     inkscape:pagecheckerboard="0"
     showgrid="false"
     inkscape:zoom="34.41253"
     inkscape:cx="3.6905162"
     inkscape:cy="10.897194"
     inkscape:window-width="2560"
     inkscape:window-height="1377"
     inkscape:window-x="-8"
     inkscape:window-y="-8"
     inkscape:window-maximized="1"
     inkscape:current-layer="svg834" />
  <path
     d="m 0.07420166,11.3858 c 0.1015,0.244349 0.2957,0.438525 0.54,0.54 0.1202,0.05124 0.2493,0.07842 0.38,0.08 H 10.994202 c 0.265216,0 0.51957,-0.105357 0.707107,-0.292893 0.187536,-0.187537 0.292893,-0.441891 0.292893,-0.707107 0,-0.26522 -0.105357,-0.51957 -0.292893,-0.70711 C 11.513772,10.11116 11.259418,10.0058 10.994202,10.0058 H 3.4042017 l 8.3000003,-8.29 C 11.79793,1.6228 11.872325,1.5122 11.923093,1.3904 11.973862,1.2685 12,1.1378 12,1.0058 12,0.8738 11.973862,0.7431 11.923093,0.6212 11.872325,0.4994 11.79793,0.3888 11.704202,0.2958 11.611239,0.2021 11.500638,0.1277 11.378779,0.0769 11.25692,0.0261 11.126214,0 10.994202,0 c -0.13201,0 -0.26272,0.0261 -0.38458,0.0769 -0.12186,0.0508 -0.23246,0.1252 -0.32542,0.2189 l -8.2900003,8.3 v -7.59 c 0,-0.2652 -0.1054,-0.5196 -0.2929,-0.7071 -0.1875,-0.1875 -0.4419,-0.2929 -0.70710004,-0.2929 -0.2652,0 -0.5196,0.1054 -0.7071,0.2929 -0.1875,0.1875 -0.2929,0.4419 -0.2929,0.7071 v 10 c 0.0016,0.130677 0.0288,0.259778 0.08,0.38 z"
     fill="#000000"
     fillOpacity="0.87"
     id="path832" />
</svg>
