<svg viewBox="0 0 12 12" fill="none" xmlns="http://www.w3.org/2000/svg">
    <path d="M11.92 0.62C11.8185 0.375651 11.6243 0.181475 11.38 0.0799999C11.2598 0.028759 11.1307 0.00157999 11 0H1C0.734784 0 0.48043 0.105357 0.292893 0.292893C0.105357 0.48043 0 0.734784 0 1C0 1.26522 0.105357 1.51957 0.292893 1.70711C0.48043 1.89464 0.734784 2 1 2H8.59L0.29 10.29C0.196272 10.383 0.121877 10.4936 0.0711088 10.6154C0.0203401 10.7373 -0.00579834 10.868 -0.00579834 11C-0.00579834 11.132 0.0203401 11.2627 0.0711088 11.3846C0.121877 11.5064 0.196272 11.617 0.29 11.71C0.382963 11.8037 0.493564 11.8781 0.615423 11.9289C0.737282 11.9797 0.867988 12.0058 1 12.0058C1.13201 12.0058 1.26272 11.9797 1.38458 11.9289C1.50644 11.8781 1.61704 11.8037 1.71 11.71L10 3.41V11C10 11.2652 10.1054 11.5196 10.2929 11.7071C10.4804 11.8946 10.7348 12 11 12C11.2652 12 11.5196 11.8946 11.7071 11.7071C11.8946 11.5196 12 11.2652 12 11V1C11.9984 0.869323 11.9712 0.740222 11.92 0.62Z" fill="black" fillOpacity="0.87"/>
</svg>
