<?xml version="1.0" encoding="UTF-8" standalone="no"?>
<svg
   viewBox="0 0 20 18"
   xmlns="http://www.w3.org/2000/svg"
>
  <path id="rect1617" fill="#59ffaf" d="M 1.4623418,1.3132002 H 14.195497 L 15.5,4.5 18.584456,5.474256 18.638125,16.41741 H 1.4623418 Z"/>
  <g id="path832">
    <path fill="black" d="m 15.5,4 v 0.5 h 0.5 1 c 0.663,0 1.2989,0.26339 1.7678,0.73223 C 19.2366,5.70107 19.5,6.33696 19.5,7 v 8 c 0,0.663 -0.2634,1.2989 -0.7322,1.7678 C 18.2989,17.2366 17.663,17.5 17,17.5 H 3 C 2.33696,17.5 1.70107,17.2366 1.23223,16.7678 0.763392,16.2989 0.5,15.663 0.5,15 V 3 C 0.5,2.33696 0.763392,1.70107 1.23223,1.23223 1.70107,0.763392 2.33696,0.5 3,0.5 h 10 c 0.663,0 1.2989,0.263392 1.7678,0.73223 C 15.2366,1.70107 15.5,2.33696 15.5,3 Z M 14,4.5 h 0.5 V 4 3 C 14.5,2.60217 14.342,2.22064 14.0607,1.93934 13.7794,1.65804 13.3978,1.5 13,1.5 H 3 C 2.60217,1.5 2.22064,1.65804 1.93934,1.93934 1.65804,2.22064 1.5,2.60217 1.5,3 1.5,3.39783 1.65804,3.77936 1.93934,4.06066 2.22064,4.34196 2.60217,4.5 3,4.5 Z m 4,8 h 0.5 V 12 10 9.5 H 18 17 C 16.6022,9.5 16.2206,9.65804 15.9393,9.93934 15.658,10.2206 15.5,10.6022 15.5,11 c 0,0.3978 0.158,0.7794 0.4393,1.0607 C 16.2206,12.342 16.6022,12.5 17,12.5 Z m 0,-4 h 0.5 V 8 7 C 18.5,6.60218 18.342,6.22064 18.0607,5.93934 17.7794,5.65804 17.3978,5.5 17,5.5 H 3 2.99926 C 2.71545,5.50042 2.43365,5.45251 2.16593,5.35833 L 0.9760274,3.3980426 1.5,5.83 V 15 c 0,0.3978 0.15804,0.7794 0.43934,1.0607 C 2.22065,16.342 2.60218,16.5 3,16.5 h 14 c 0.3978,0 0.7794,-0.158 1.0607,-0.4393 C 18.342,15.7794 18.5,15.3978 18.5,15 V 14 13.5 H 18 17 c -0.663,0 -1.2989,-0.2634 -1.7678,-0.7322 C 14.7634,12.2989 14.5,11.663 14.5,11 14.5,10.337 14.7634,9.70107 15.2322,9.23223 15.7011,8.76339 16.337,8.5 17,8.5 Z"
       id="path1511" />
    <path fill="black" d="M 3,0 C 2.2045445,0 1.4413795,0.31643541 0.87890625,0.87890625 0.31643541,1.4413795 0,2.2045445 0,3 v 12 c 0,0.795424 0.31645934,1.558572 0.87890625,2.121094 C 1.4413759,17.683515 2.2045404,18 3,18 h 14 c 0.795428,0 1.558576,-0.316509 2.121094,-0.878906 C 19.683491,16.558576 20,15.795428 20,15 V 7 C 20,6.2045404 19.683515,5.4413759 19.121094,4.8789062 18.558572,4.3164564 17.795423,4 17,4 H 16 V 3 C 16,2.2045404 15.683515,1.4413759 15.121094,0.87890625 14.558572,0.31645934 13.795424,0 13,0 Z m 0,2 h 10 c 0.265371,0 0.519392,0.1053298 0.707031,0.2929688 C 13.894683,2.4806203 14,2.7345551 14,3 V 4 H 3 C 2.7345886,4 2.480637,3.8946995 2.2929688,3.7070313 2.1053005,3.519363 2,3.2654114 2,3 2,2.7345886 2.1053005,2.480637 2.2929688,2.2929688 2.480637,2.1053005 2.7345886,2 3,2 Z M 2,5.8300781 C 2.3212571,5.9430917 2.6594307,6.000504 3,6 h 14 c 0.265371,0 0.519392,0.1053298 0.707031,0.2929687 C 17.894679,6.4806161 18,6.7345684 18,7 V 8 H 17 C 16.204577,8 15.441428,8.3164564 14.878906,8.8789063 14.316475,9.441386 14,10.204572 14,11 c 0,0.795428 0.316509,1.558576 0.878906,2.121094 C 15.441424,13.683491 16.204572,14 17,14 h 1 v 1 c 0,0.265405 -0.105347,0.519409 -0.292969,0.707031 C 17.519409,15.894653 17.265405,16 17,16 H 3 C 2.7345684,16 2.4806343,15.89469 2.2929688,15.707031 2.1053298,15.519392 2,15.265371 2,15 Z M 17,10 h 1 v 2 H 17 C 16.734595,12 16.480591,11.894653 16.292969,11.707031 16.105347,11.519409 16,11.265405 16,11 16,10.734595 16.105376,10.480535 16.292969,10.292969 16.480608,10.10533 16.734629,10 17,10 Z" id="path1513" />
  </g>
</svg>
